<?xml version="1.0" encoding="UTF-8"?>
<svg xmlns="http://www.w3.org/2000/svg" viewBox="0 0 1000 1001" width="1000" height="1001">
<defs>
<clipPath id="rounded-corners"><rect width="1000" height="1001" rx="180" ry="180"/></clipPath>
</defs>
<g clip-path="url(#rounded-corners)">
<path d="M0.25 0.25C333.42 0.25 666.58 0.25 999.75 0.25C999.75 333.75 999.75 667.25 999.75 1000.75C949.5 1000.78 899.25 1000.81 849 1000.83C849.08 843.72 849.15 686.61 849.23 529.5C887.7 499.52 904.63 446.89 889.28 400.29C883.84 383.77 873.99 368.09 860.32 357.12C851.88 350.35 842.38 345.07 832.23 341.32C815.33 335.08 798.16 335.05 780.5 336.89C767.61 324.28 754.91 311.82 740.34 301.1C698.13 270.04 648.59 248.95 597.38 238.26C579.93 234.62 562.25 231.88 544.5 230.21C535.88 229.4 526.91 229.79 518.39 228.5C518.21 217.83 518.02 207.17 517.83 196.5C509.31 195.28 499.79 195.97 491.19 196.49C473.35 197.57 455.98 199.16 438.44 202.74C377.35 215.24 320.34 245.5 272.4 284.94C253.55 300.45 234.67 317.46 219.5 336.7C212.18 336.44 204.9 335.14 197.5 335.53C178.48 336.52 159.72 342.45 144.18 353.65C128.31 365.08 116.81 381.8 110.72 400.29C95.37 446.89 112.3 499.52 150.77 529.5C150.85 686.61 150.92 843.72 151 1000.83C100.75 1000.81 50.5 1000.78 0.25 1000.75C0.25 667.25 0.25 333.75 0.25 0.25ZM856.84 450.06C846.56 463.33 841.65 469.28 824.5 473.5C821.22 466.73 824.84 448.9 823.01 440.16C822.84 428.39 822.67 416.61 822.5 404.83C792.61 405.98 767.44 423.91 756.15 451.62C752.3 461.07 751.6 470.53 750.5 480.5C752.99 480.72 755.47 480.95 757.95 481.17C757.85 539.81 757.75 598.44 757.64 657.07C756.5 652.84 755.99 648.66 753.83 644.69C745.4 629.17 729.95 626.08 714 630.28C664.64 630.07 615.28 629.85 565.91 629.64C567.02 626.99 568.5 624.41 568.87 621.48C570.49 608.78 560.33 602.01 552.16 594.35C536.49 579.66 524.62 565.47 501.5 564.19C480.02 562.99 465.76 577.4 451.46 590.96C442.53 599.42 429.34 607.41 431.13 621.48C431.5 624.41 432.98 626.99 434.09 629.64C384.72 629.85 335.36 630.07 286 630.28C271.59 626.48 257.85 628.21 248.51 641.01C246.04 644.39 244.86 648.08 243.24 651.84C243.14 594.94 243.04 538.05 242.94 481.16C245.24 480.94 247.54 480.72 249.83 480.5C248.61 469.09 247.34 458.52 242.54 447.94C231.29 423.14 205.38 403.93 177.5 405.06C177.38 416.71 177.26 428.37 177.14 440.02C176.93 451.18 176.71 462.34 176.5 473.5C165.47 470.76 156.53 463.89 149.6 454.87C146.89 451.33 144.93 446.84 142.28 443.6C137.21 404.41 164.89 369.8 205.5 372.22C224.66 373.36 240.11 383.18 253.5 396.03C263.04 388.52 272.58 381.01 282.11 373.5C275.54 363.8 265.55 357.09 256.11 350.5C266.67 337.21 280.39 325.74 293.4 314.94C330.24 284.34 372.52 259.98 418.4 245.82C433.14 241.27 448.22 237.9 463.5 235.81C469.52 234.99 476.21 233.39 482.17 234.5C482.28 244.65 482.39 254.8 482.5 264.94C492.13 265.66 501.85 264.76 511.5 265.18C522.17 265.64 532.85 266.25 543.5 267.21C592.84 271.67 642.36 285.6 685.81 309.65C700.2 317.62 713.75 326.71 726.68 336.88C731.79 340.9 739.42 345.72 742.5 351.5C733.43 357.33 724.01 364.47 717.89 373.5C727.42 381.01 736.96 388.52 746.5 396.03C759.88 383.19 775.35 373.36 794.5 372.22C838.82 369.58 864.55 409 856.84 450.06ZM317.73 468.36C301.06 471.48 286.87 484.91 283.21 501.56C281.57 509.06 282.17 516.88 282.17 524.5C282.17 534.09 281.26 544.01 284.3 553.26C290.95 573.46 311.6 585.69 332.5 582.9C349.82 580.59 365.07 566.51 368.78 549.44C370.41 541.93 369.83 534.14 369.83 526.5C369.83 516.88 370.7 507.01 367.71 497.73C361.01 476.97 339.02 464.36 317.73 468.36ZM665.69 468.32C649.05 471.4 634.84 485.01 631.21 501.56C629.57 509.06 630.17 516.88 630.17 524.5C630.17 534.1 629.27 544.01 632.29 553.27C638.89 573.48 659.65 585.69 680.5 582.9C697.74 580.6 713.16 566.51 716.78 549.44C718.3 542.23 717.83 534.82 717.83 527.5C717.83 517.58 718.8 507.3 715.71 497.73C709 476.95 687 464.39 665.69 468.32Z" fill="#fdbb6f" fill-rule="evenodd" stroke="#fdbb6f" stroke-width="0.25" stroke-linejoin="round"/>
<path d="M849 1000.83C836.69 1000.83 824.37 1000.83 812.06 1000.83C812.11 837.39 812.17 673.94 812.23 510.5C817.2 506.47 822.98 503.54 827.92 499.44C842.46 487.36 854.67 469.16 856.84 450.06C864.55 409 838.82 369.58 794.5 372.22C775.35 373.36 759.88 383.19 746.5 396.03C736.96 388.52 727.42 381.01 717.89 373.5C724.01 364.47 733.43 357.33 742.5 351.5C739.42 345.72 731.79 340.9 726.68 336.88C713.75 326.71 700.2 317.62 685.81 309.65C642.36 285.6 592.84 271.67 543.5 267.21C532.85 266.25 522.17 265.64 511.5 265.18C501.85 264.76 492.13 265.66 482.5 264.94C482.39 254.8 482.28 244.65 482.17 234.5C476.21 233.39 469.52 234.99 463.5 235.81C448.22 237.9 433.14 241.27 418.4 245.82C372.52 259.98 330.24 284.34 293.4 314.94C280.39 325.74 266.67 337.21 256.11 350.5C265.55 357.09 275.54 363.8 282.11 373.5C272.58 381.01 263.04 388.52 253.5 396.03C240.11 383.18 224.66 373.36 205.5 372.22C164.89 369.8 137.21 404.41 142.28 443.6C143.38 463.55 153.93 482.65 168.35 496.14C174.33 501.73 181.43 505.51 187.83 510.5C187.87 673.94 187.91 837.39 187.94 1000.83C175.63 1000.83 163.31 1000.83 151 1000.83C150.92 843.72 150.85 686.61 150.77 529.5C112.3 499.52 95.37 446.89 110.72 400.29C116.81 381.8 128.31 365.08 144.18 353.65C159.72 342.45 178.48 336.52 197.5 335.53C204.9 335.14 212.18 336.44 219.5 336.7C234.67 317.46 253.55 300.45 272.4 284.94C320.34 245.5 377.35 215.24 438.44 202.74C455.98 199.16 473.35 197.57 491.19 196.49C499.79 195.97 509.31 195.28 517.83 196.5C518.02 207.17 518.21 217.83 518.39 228.5C526.91 229.79 535.88 229.4 544.5 230.21C562.25 231.88 579.93 234.62 597.38 238.26C648.59 248.95 698.13 270.04 740.34 301.1C754.91 311.82 767.61 324.28 780.5 336.89C798.16 335.05 815.33 335.08 832.23 341.32C842.38 345.07 851.88 350.35 860.32 357.12C873.99 368.09 883.84 383.77 889.28 400.29C904.63 446.89 887.7 499.52 849.23 529.5C849.15 686.61 849.08 843.72 849 1000.83ZM242.94 481.16C233.46 481.11 223.98 481.05 214.5 481C213.78 477.59 213.58 474.01 212.79 470.56C210.15 459.01 201.94 448.34 191.08 443.45C186.56 441.42 181.9 441.09 177.14 440.02C177.26 428.37 177.38 416.71 177.5 405.06C205.38 403.93 231.29 423.14 242.54 447.94C247.34 458.52 248.61 469.09 249.83 480.5C247.54 480.72 245.24 480.94 242.94 481.16ZM823.01 440.16C800.08 443.79 787.66 456.92 786.17 480.5C776.76 480.72 767.35 480.95 757.95 481.17C755.47 480.95 752.99 480.72 750.5 480.5C751.6 470.53 752.3 461.07 756.15 451.62C767.44 423.91 792.61 405.98 822.5 404.83C822.67 416.61 822.84 428.39 823.01 440.16ZM317.73 468.36C339.02 464.36 361.01 476.97 367.71 497.73C370.7 507.01 369.83 516.88 369.83 526.5C369.83 534.14 370.41 541.93 368.78 549.44C365.07 566.51 349.82 580.59 332.5 582.9C311.6 585.69 290.95 573.46 284.3 553.26C281.26 544.01 282.17 534.09 282.17 524.5C282.17 516.88 281.57 509.06 283.21 501.56C286.87 484.91 301.06 471.48 317.73 468.36ZM665.69 468.32C687 464.39 709 476.95 715.71 497.73C718.8 507.3 717.83 517.58 717.83 527.5C717.83 534.82 718.3 542.23 716.78 549.44C713.16 566.51 697.74 580.6 680.5 582.9C659.65 585.69 638.89 573.48 632.29 553.27C629.27 544.01 630.17 534.1 630.17 524.5C630.17 516.88 629.57 509.06 631.21 501.56C634.84 485.01 649.05 471.4 665.69 468.32ZM323.05 492.88C317.51 493.73 313.21 497.7 311.94 503.16C310.76 505.56 310.73 508.44 311.92 510.84C313.15 516.16 316.84 519.85 322.16 521.08C324.56 522.27 327.44 522.24 329.84 521.06C335.3 519.79 339.27 515.48 340.12 509.95C341.03 507.9 341.01 506.13 340.1 504.08C339.12 498.21 334.79 493.89 328.92 492.9C326.87 491.99 325.1 491.97 323.05 492.88ZM659.9 508.08C658.99 510.13 658.94 511.9 659.88 513.95C661.95 529.06 685.02 529.87 688.08 514.91C688.27 514.77 688.45 514.64 688.64 514.5C688.47 512.31 688.31 510.12 688.15 507.94C685.6 492.88 662.44 493.1 659.9 508.08ZM565.91 629.64C556.34 639.43 535.63 646.32 522.75 652.26C515.6 655.55 508.53 659.56 500.43 659.62C491.95 659.69 484.74 655.71 477.25 652.26C464.37 646.32 443.66 639.43 434.09 629.64C432.98 626.99 431.5 624.41 431.13 621.48C429.34 607.41 442.53 599.42 451.46 590.96C465.76 577.4 480.02 562.99 501.5 564.19C524.62 565.47 536.49 579.66 552.16 594.35C560.33 602.01 570.49 608.78 568.87 621.48C568.5 624.41 567.02 626.99 565.91 629.64ZM495.98 585.85C486.19 586.4 471.8 595.66 479.62 606.86C483.81 612.86 491.91 615.02 498.81 615.49C506.88 616.03 517.76 613.01 521.8 605.3C527.48 594.48 513.86 586.51 504.92 585.9C504.78 585.72 504.64 585.54 504.5 585.36C501.66 585.53 498.82 585.69 495.98 585.85ZM286 630.28C296.17 636.25 303.16 643.36 305.07 655.5C300.55 656.23 296.02 656.97 291.5 657.7C291 665.98 296.19 676.25 299.83 683.66C313.63 711.67 342.16 732.64 374.16 733.1C374.27 733.23 374.39 733.37 374.5 733.51C377.35 733.62 380.2 733.72 383.05 733.82C385.37 733.83 387.69 733.83 390.01 733.83C392.51 733.77 395 733.7 397.5 733.64C397.64 733.46 397.78 733.28 397.92 733.1C421.35 732.71 448.12 718.01 465.95 703.47C471.09 699.28 475.96 694.84 480.65 690.15C483.89 686.91 486.92 682.74 490.95 680.49C493.55 679.04 496.53 678.24 499.5 678.17C502.81 678.08 506.14 678.87 509.05 680.49C513.26 682.84 516.47 687.27 519.85 690.65C524.38 695.18 529.12 699.4 534.07 703.45C551.88 718.02 578.64 732.71 602.08 733.1C602.22 733.28 602.36 733.46 602.5 733.64C605 733.7 607.49 733.77 609.99 733.83C612.3 733.83 614.61 733.82 616.92 733.81C619.62 733.59 622.32 733.37 625.02 733.15C658.01 732.86 687.6 710.89 701.11 681.59C704.3 674.66 708.96 665.33 708.5 657.7C703.98 656.97 699.45 656.23 694.93 655.5C696.88 643.34 703.8 636.27 714 630.28C729.95 626.08 745.4 629.17 753.83 644.69C755.99 648.66 756.5 652.84 757.64 657.07C757.53 658.88 757.42 660.69 757.3 662.5C753.03 662.33 748.77 662.17 744.5 662C743.26 666.72 742.02 671.44 740.78 676.16C738.46 681.36 737.07 687.06 734.81 692.34C729.58 704.6 722.6 716.26 713.91 726.39C678.7 767.46 617.76 777.99 567.77 761.66C551.34 756.3 535.67 747.97 521.64 737.93C517.19 734.74 512.8 731.43 508.6 727.94C505.62 725.47 503 722.46 499.5 720.92C479.4 738.22 457.69 753.34 432.23 761.66C387.07 776.41 330.94 769.59 295.48 736.03C283.93 725.1 274.45 712.21 267.66 697.81C264.34 690.77 262.36 683.2 259.22 676.16C257.98 671.44 256.74 666.72 255.5 662C251.23 662.17 246.97 662.33 242.7 662.5C242.88 658.95 243.06 655.39 243.24 651.84C244.86 648.08 246.04 644.39 248.51 641.01C257.85 628.21 271.59 626.48 286 630.28Z" fill="#000000" fill-rule="evenodd" stroke="#000000" stroke-width="0.25" stroke-linejoin="round"/>
<path d="M328.92 492.9C326.96 492.89 325 492.89 323.05 492.88C325.1 491.97 326.87 491.99 328.92 492.9ZM311.94 503.16C311.93 505.72 311.93 508.28 311.92 510.84C310.73 508.44 310.76 505.56 311.94 503.16ZM340.1 504.08C341.01 506.13 341.03 507.9 340.12 509.95C340.11 508 340.11 506.04 340.1 504.08ZM659.9 508.08C659.89 510.04 659.89 512 659.88 513.95C658.94 511.9 658.99 510.13 659.9 508.08ZM688.15 507.94C688.31 510.12 688.47 512.31 688.64 514.5C688.45 514.64 688.27 514.77 688.08 514.91C688.11 512.58 688.13 510.26 688.15 507.94ZM322.16 521.08C324.72 521.07 327.28 521.07 329.84 521.06C327.44 522.24 324.56 522.27 322.16 521.08ZM504.92 585.9C501.94 585.88 498.96 585.87 495.98 585.85C498.82 585.69 501.66 585.53 504.5 585.36C504.64 585.54 504.78 585.72 504.92 585.9ZM259.22 676.16C262.36 683.2 264.34 690.77 267.66 697.81C274.45 712.21 283.93 725.1 295.48 736.03C330.94 769.59 387.07 776.41 432.23 761.66C457.69 753.34 479.4 738.22 499.5 720.92C503 722.46 505.62 725.47 508.6 727.94C512.8 731.43 517.19 734.74 521.64 737.93C535.67 747.97 551.34 756.3 567.77 761.66C617.76 777.99 678.7 767.46 713.91 726.39C722.6 716.26 729.58 704.6 734.81 692.34C737.07 687.06 738.46 681.36 740.78 676.16C740.87 784.39 740.96 892.61 741.06 1000.83C580.35 1000.83 419.65 1000.83 258.94 1000.83C259.04 892.61 259.13 784.39 259.22 676.16ZM374.16 733.1C376.94 733.02 379.72 732.93 382.5 732.85C382.68 733.18 382.87 733.5 383.05 733.82C380.2 733.72 377.35 733.62 374.5 733.51C374.39 733.37 374.27 733.23 374.16 733.1ZM397.92 733.1C397.78 733.28 397.64 733.46 397.5 733.64C395 733.7 392.51 733.77 390.01 733.83C390.17 733.57 390.34 733.3 390.5 733.03C392.97 733.05 395.45 733.08 397.92 733.1ZM602.08 733.1C604.55 733.08 607.03 733.05 609.5 733.03C609.66 733.3 609.83 733.57 609.99 733.83C607.49 733.77 605 733.7 602.5 733.64C602.36 733.46 602.22 733.28 602.08 733.1ZM625.02 733.15C622.32 733.37 619.62 733.59 616.92 733.81C617.11 733.46 617.31 733.11 617.5 732.77C620.01 732.89 622.51 733.02 625.02 733.15Z" fill="#dddddd" fill-rule="evenodd" stroke="#dddddd" stroke-width="0.25" stroke-linejoin="round"/>
<path d="M177.14 440.02C181.9 441.09 186.56 441.42 191.08 443.45C201.94 448.34 210.15 459.01 212.79 470.56C213.58 474.01 213.78 477.59 214.5 481C223.98 481.05 233.46 481.11 242.94 481.16C243.04 538.05 243.14 594.94 243.24 651.84C243.06 655.39 242.88 658.95 242.7 662.5C246.97 662.33 251.23 662.17 255.5 662C256.74 666.72 257.98 671.44 259.22 676.16C259.13 784.39 259.04 892.61 258.94 1000.83C235.28 1000.83 211.61 1000.83 187.94 1000.83C187.91 837.39 187.87 673.94 187.83 510.5C181.43 505.51 174.33 501.73 168.35 496.14C153.93 482.65 143.38 463.55 142.28 443.6C144.93 446.84 146.89 451.33 149.6 454.87C156.53 463.89 165.47 470.76 176.5 473.5C176.71 462.34 176.93 451.18 177.14 440.02ZM823.01 440.16C824.84 448.9 821.22 466.73 824.5 473.5C841.65 469.28 846.56 463.33 856.84 450.06C854.67 469.16 842.46 487.36 827.92 499.44C822.98 503.54 817.2 506.47 812.23 510.5C812.17 673.94 812.11 837.39 812.06 1000.83C788.39 1000.83 764.72 1000.83 741.06 1000.83C740.96 892.61 740.87 784.39 740.78 676.16C742.02 671.44 743.26 666.72 744.5 662C748.77 662.17 753.03 662.33 757.3 662.5C757.42 660.69 757.53 658.88 757.64 657.07C757.75 598.44 757.85 539.81 757.95 481.17C767.35 480.95 776.76 480.72 786.17 480.5C787.66 456.92 800.08 443.79 823.01 440.16Z" fill="#ef9543" fill-rule="evenodd" stroke="#ef9543" stroke-width="0.25" stroke-linejoin="round"/>
<path d="M323.05 492.88C325 492.89 326.96 492.89 328.92 492.9C334.79 493.89 339.12 498.21 340.1 504.08C340.11 506.04 340.11 508 340.12 509.95C339.27 515.48 335.3 519.79 329.84 521.06C327.28 521.07 324.72 521.07 322.16 521.08C316.84 519.85 313.15 516.16 311.92 510.84C311.93 508.28 311.93 505.72 311.94 503.16C313.21 497.7 317.51 493.73 323.05 492.88ZM688.15 507.94C688.13 510.26 688.11 512.58 688.08 514.91C685.02 529.87 661.95 529.06 659.88 513.95C659.89 512 659.89 510.04 659.9 508.08C662.44 493.1 685.6 492.88 688.15 507.94ZM495.98 585.85C498.96 585.87 501.94 585.88 504.92 585.9C513.86 586.51 527.48 594.48 521.8 605.3C517.76 613.01 506.88 616.03 498.81 615.49C491.91 615.02 483.81 612.86 479.62 606.86C471.8 595.66 486.19 586.4 495.98 585.85ZM286 630.28C335.36 630.07 384.72 629.85 434.09 629.64C443.66 639.43 464.37 646.32 477.25 652.26C484.74 655.71 491.95 659.69 500.43 659.62C508.53 659.56 515.6 655.55 522.75 652.26C535.63 646.32 556.34 639.43 565.91 629.64C615.28 629.85 664.64 630.07 714 630.28C703.8 636.27 696.88 643.34 694.93 655.5C699.45 656.23 703.98 656.97 708.5 657.7C708.96 665.33 704.3 674.66 701.11 681.59C687.6 710.89 658.01 732.86 625.02 733.15C622.51 733.02 620.01 732.89 617.5 732.77C617.31 733.11 617.11 733.46 616.92 733.81C614.61 733.82 612.3 733.83 609.99 733.83C609.83 733.57 609.66 733.3 609.5 733.03C607.03 733.05 604.55 733.08 602.08 733.1C578.64 732.71 551.88 718.02 534.07 703.45C529.12 699.4 524.38 695.18 519.85 690.65C516.47 687.27 513.26 682.84 509.05 680.49C506.14 678.87 502.81 678.08 499.5 678.17C496.53 678.24 493.55 679.04 490.95 680.49C486.92 682.74 483.89 686.91 480.65 690.15C475.96 694.84 471.09 699.28 465.95 703.47C448.12 718.01 421.35 732.71 397.92 733.1C395.45 733.08 392.97 733.05 390.5 733.03C390.34 733.3 390.17 733.57 390.01 733.83C387.69 733.83 385.37 733.83 383.05 733.82C382.87 733.5 382.68 733.18 382.5 732.85C379.72 732.93 376.94 733.02 374.16 733.1C342.16 732.64 313.63 711.67 299.83 683.66C296.19 676.25 291 665.98 291.5 657.7C296.02 656.97 300.55 656.23 305.07 655.5C303.16 643.36 296.17 636.25 286 630.28Z" fill="#ffffff" fill-rule="evenodd" stroke="#ffffff" stroke-width="0.25" stroke-linejoin="round"/>
</g>
</svg>