<?xml version="1.0" encoding="UTF-8"?>
<svg xmlns="http://www.w3.org/2000/svg" viewBox="0 0 1000 1000" width="1000" height="1000">
<defs>
<clipPath id="rounded-corners"><rect width="1000" height="1000" rx="180" ry="180"/></clipPath>
</defs>
<g clip-path="url(#rounded-corners)">
<path d="M0.25 0.25C333.42 0.25 666.58 0.25 999.75 0.25C999.75 333.42 999.75 666.58 999.75 999.75C666.58 999.75 333.42 999.75 0.25 999.75C0.25 666.58 0.25 333.42 0.25 0.25ZM603.99 163.17C587.1 162.16 570.53 159.72 553.5 161.18C510.19 164.89 466.96 178.08 431.66 204.1C422 211.21 412.89 219.48 405.05 228.59C402.28 231.82 399.88 235.39 397 238.5C383.8 239.27 374.58 238.43 362.2 244.66C337.02 257.34 327.69 286.86 332.32 313.36C334.29 324.62 339.44 333.78 345.03 343.5C323.42 407.75 303.2 472.55 286.71 538.31C276.43 579.27 268.08 612.46 271.79 655.5C272.42 662.84 273.11 670.32 274.83 677.5C270.87 680.71 261.74 682.23 256.59 684.15C244.8 688.53 233.52 693.82 222.62 700.11C191.79 717.92 166.18 745.87 152.32 778.78C147.81 789.47 145.92 800.33 143.17 811.5C148.06 812.53 153.46 812 158.5 812C168.17 812 177.83 812 187.5 812C217.5 812 247.5 812 277.5 812C371.83 812 466.17 812 560.5 812C607.5 812 654.5 812 701.5 812C715.17 812 728.83 812 742.5 812C753.14 812 763.83 812.46 774.18 809.6C797.82 803.09 806.24 781.09 812.33 759.75C817.18 742.78 821.82 725.76 826.29 708.69C829.89 694.97 835.59 680.87 832.86 666.53C831.33 658.51 827.13 650.82 821.62 644.86C818.99 642.03 815.49 639.68 813.39 636.5C826.31 592.92 838.6 549.06 850.65 505.24C855.11 489.01 864.11 467.76 842.81 458.66C834.41 455.07 823.46 456.83 814.5 456.83C795.83 456.83 777.17 456.83 758.5 456.83C751.83 456.83 745.17 456.83 738.5 456.83C734.67 456.83 731.39 457.65 728.83 454.5C734.06 448 739.28 441.5 744.5 435C749.83 439.87 755.17 444.74 760.5 449.61C763.9 446.57 767.3 443.54 770.7 440.5C764.37 434.5 758.03 428.5 751.7 422.5C752.56 418.31 754.47 414.39 755.67 410.25C757.91 402.47 759.02 394.58 759.45 386.5C760.41 368.26 753.69 344.69 750.3 326.44C746.52 306.13 744.29 284.67 735.82 265.65C712.4 213.01 660.24 181.36 603.99 176.11C603.99 171.8 603.99 167.48 603.99 163.17ZM736.25 371.33C734.13 377.8 733.41 383.72 727.94 388.45C720.91 394.53 711.17 393.83 702.5 393.83C691.5 393.83 680.5 393.83 669.5 393.83C663.7 393.83 657.59 393.33 651.9 394.26C644.13 385.21 629.4 369.49 617.38 367.28C601.63 364.38 593.87 372.31 583.33 381.84C579.01 385.74 574.71 389.58 571.02 394.05C540.36 393.98 509.7 393.92 479.04 393.85C478.62 368.25 441.75 367.53 439.83 393.5C441.69 393.85 447.77 393.17 448.86 394.69C449.45 395.52 448.65 395.23 448.94 396.08C441.79 422.39 434.65 448.69 427.5 475C405.44 471.65 389.23 452.87 389.83 430.5C390.17 418.01 395.45 405.25 398.66 393.25C402.62 378.41 408.16 363.6 410.81 348.46C412.14 340.86 412.38 333.16 413 325.49C416.5 325.38 420 325.27 423.5 325.17C426.36 301.28 401.41 278.75 378.5 280.06C378.45 287.32 378.39 294.58 378.34 301.85C378.06 307.27 377.78 312.69 377.5 318.11C364.55 314.79 359.4 309.92 353.17 298.83C353.11 293.86 353.99 288.85 355.58 284.13C365.98 253.21 403.93 255.31 423.5 275.77C429.23 271.35 434.97 266.92 440.7 262.5C435.45 254.69 427.4 250.67 419.89 245.5C444.46 212.3 495.14 192.51 534.43 185.73C547.93 183.4 568.94 180.83 582.17 183.5C582.28 187.87 582.39 192.24 582.5 196.61C589.76 197.54 597.19 197.39 604.5 198.2C618.37 199.73 632.28 203.06 645.22 208.32C675.98 220.82 701.87 244.43 715.74 274.75C721.87 288.15 723.46 303.11 726.22 317.44C728.6 329.77 730.89 342.11 733.2 354.46C734.24 360.06 735.67 365.67 736.25 371.33ZM485.57 294.36C474.68 295.44 464.41 303.52 462.21 314.56C461.31 319.14 461.5 323.86 461.5 328.5C461.5 333.43 461.24 338.47 462.3 343.31C465.13 356.28 477.75 364.05 490.5 363.11C500.76 362.35 510.17 354.32 512.88 344.45C514.22 339.55 514 334.53 514 329.5C514 323.86 514.38 318.13 512.75 312.66C509.33 301.23 497.46 293.17 485.57 294.36ZM679.75 297.35C664.44 300.96 661.5 313.9 661.5 327.5C661.5 332.69 660.98 338.21 662.3 343.29C665.37 355.06 677.68 362.41 689.46 360.79C699.27 359.44 708.07 351.26 709.81 341.45C710.51 337.56 710.17 333.44 710.17 329.5C710.17 323.93 710.83 317.94 708.83 312.63C704.39 300.87 691.96 294.47 679.75 297.35ZM388.84 527.02C393.68 528.88 398.34 531 403.54 531.8C412.35 533.15 421.61 532.5 430.5 532.5C445.5 532.5 460.5 532.5 475.5 532.5C480.83 532.5 486.09 532.37 491.36 533.32C505.13 535.8 521.46 545.22 528.08 558C523.24 579.03 506.17 577 488.5 577C459.5 577 430.5 577 401.5 577C392.17 577 382.83 577 373.5 577C368.39 577 362.96 577.49 358 576.5C358.19 561.84 365.66 546.8 376.16 536.66C380.02 532.92 384.64 530.26 388.84 527.02ZM650.23 681.9C647.36 678.3 645.55 674.6 641.54 671.98C631.52 665.44 617.56 668.57 611.34 678.8C608.2 683.96 607.32 690.6 605.75 696.37C602.35 708.91 599.92 722.43 595.18 734.5C530.25 734.5 465.32 734.5 400.39 734.5C399.02 714.68 415.08 688.09 433.93 680.9C442.69 682.99 451.5 682.5 460.5 682.5C472.17 682.5 483.83 682.5 495.5 682.5C511.83 682.5 528.17 682.5 544.5 682.5C553.33 682.5 562.82 683.43 571.5 682C583.03 666.86 597.02 650.49 617.5 649.05C633.95 647.89 658.44 662.48 650.23 681.9ZM810.31 682.07C802.85 667.85 784 662.52 773.1 676.66C768.65 682.43 767.66 690.58 765.81 697.44C762.47 709.78 759.44 722.27 755.71 734.5C739.42 734.5 723.12 734.5 706.82 734.5C710.01 715.51 722.8 698.9 731.38 682.39C743.1 667.35 756.88 650.54 777.5 649.06C794.16 647.88 818.81 662.47 810.31 682.07ZM258.99 707.06C260.66 731.36 265.39 742.68 279.11 762.5C273.34 763.99 266.54 763.17 260.5 763.17C249.5 763.17 238.5 763.17 227.5 763.17C220.94 763.17 213.5 764.34 209.01 758.47C204.2 752.18 207.41 745.62 207.94 738.9C210.81 734.68 215.79 731.46 219.9 728.43C231.44 719.93 245.12 711.05 258.99 707.06Z" fill="#fdbb6f" fill-rule="evenodd" stroke="#fdbb6f" stroke-width="0.25" stroke-linejoin="round"/>
<path d="M603.99 163.17C603.99 167.48 603.99 171.8 603.99 176.11C660.24 181.36 712.4 213.01 735.82 265.65C744.29 284.67 746.52 306.13 750.3 326.44C753.69 344.69 760.41 368.26 759.45 386.5C759.02 394.58 757.91 402.47 755.67 410.25C754.47 414.39 752.56 418.31 751.7 422.5C758.03 428.5 764.37 434.5 770.7 440.5C767.3 443.54 763.9 446.57 760.5 449.61C755.17 444.74 749.83 439.87 744.5 435C739.28 441.5 734.06 448 728.83 454.5C731.39 457.65 734.67 456.83 738.5 456.83C745.17 456.83 751.83 456.83 758.5 456.83C777.17 456.83 795.83 456.83 814.5 456.83C823.46 456.83 834.41 455.07 842.81 458.66C864.11 467.76 855.11 489.01 850.65 505.24C838.6 549.06 826.31 592.92 813.39 636.5C815.49 639.68 818.99 642.03 821.62 644.86C827.13 650.82 831.33 658.51 832.86 666.53C835.59 680.87 829.89 694.97 826.29 708.69C821.82 725.76 817.18 742.78 812.33 759.75C806.24 781.09 797.82 803.09 774.18 809.6C763.83 812.46 753.14 812 742.5 812C728.83 812 715.17 812 701.5 812C654.5 812 607.5 812 560.5 812C466.17 812 371.83 812 277.5 812C247.5 812 217.5 812 187.5 812C177.83 812 168.17 812 158.5 812C153.46 812 148.06 812.53 143.17 811.5C145.92 800.33 147.81 789.47 152.32 778.78C166.18 745.87 191.79 717.92 222.62 700.11C233.52 693.82 244.8 688.53 256.59 684.15C261.74 682.23 270.87 680.71 274.83 677.5C273.11 670.32 272.42 662.84 271.79 655.5C268.08 612.46 276.43 579.27 286.71 538.31C303.2 472.55 323.42 407.75 345.03 343.5C339.44 333.78 334.29 324.62 332.32 313.36C327.69 286.86 337.02 257.34 362.2 244.66C374.58 238.43 383.8 239.27 397 238.5C399.88 235.39 402.28 231.82 405.05 228.59C412.89 219.48 422 211.21 431.66 204.1C466.96 178.08 510.19 164.89 553.5 161.18C570.53 159.72 587.1 162.16 603.99 163.17ZM353.17 298.83C352.6 314.8 359.98 326.99 370.12 338.5C363.71 360.44 355.17 381.89 348.29 403.71C333.52 450.51 319.66 497.68 307.65 545.25C302.45 565.86 296.62 586.31 294.23 607.5C289.77 647.13 294.71 689.67 314.67 724.79C330.51 752.65 355.43 776.53 386.77 785.65C405.63 791.13 425.07 790 444.5 790C472.17 790 499.83 790 527.5 790C547.17 790 566.83 790 586.5 790C596.35 790 607.69 790.99 615.96 784.48C625.45 777 628 763.63 631.25 752.66C635.57 738.1 639.48 723.41 643.3 708.71C645.61 699.83 648.61 690.93 650.23 681.9C658.44 662.48 633.95 647.89 617.5 649.05C597.02 650.49 583.03 666.86 571.5 682C562.82 683.43 553.33 682.5 544.5 682.5C528.17 682.5 511.83 682.5 495.5 682.5C483.83 682.5 472.17 682.5 460.5 682.5C451.5 682.5 442.69 682.99 433.93 680.9C429.96 677.92 425.98 675.67 423.38 671.14C419.65 664.65 420.17 657.73 420.17 650.5C420.17 636.51 419.42 622.5 434.96 616.48C443.44 613.2 454.53 615 463.5 615C479.17 615 494.83 615 510.5 615C518.76 615 527.99 616.09 536.03 614.5C537.61 609.29 539.26 603.94 539.82 598.5C541.04 586.57 536.98 566.72 528.08 558C521.46 545.22 505.13 535.8 491.36 533.32C486.09 532.37 480.83 532.5 475.5 532.5C460.5 532.5 445.5 532.5 430.5 532.5C421.61 532.5 412.35 533.15 403.54 531.8C398.34 531 393.68 528.88 388.84 527.02C386.07 524.69 382.84 522.86 380.21 520.26C371.75 511.91 366.46 498.68 367.5 486.83C374.5 486.72 381.5 486.61 388.5 486.51C390.61 494.3 391.18 502.06 398.62 506.93C407.65 512.84 421.29 510.51 431.5 510.51C449.41 510.51 467.63 509.52 485.5 510.55C491.09 510.88 496.41 512.31 501.9 512.97C507.85 515.67 514.04 517.42 519.79 520.68C534.01 528.74 544.47 540.98 552.5 555C555.32 549.09 556.58 542.07 558.33 535.75C561.29 525.08 564.43 514.45 567.35 503.76C569.42 496.17 574.96 482.87 574.5 475.61C566.09 477.88 557.86 479.46 549.17 480.19C545.45 480.18 541.72 480.17 538 480.17C529.09 479.43 520.61 477.56 512 475.25C507.17 473.27 502.33 471.29 497.5 469.3C493.83 474.89 490.17 480.48 486.5 486.07C482.69 484.21 478.87 482.36 475.06 480.5C476.19 474.16 481.19 467.77 484.88 462.5C478.09 455.92 471.29 449.35 464.5 442.77C459.17 448.18 453.83 453.59 448.5 459C444.99 456.17 441.47 453.33 437.96 450.5C444.35 443.83 450.74 437.17 457.14 430.5C455.81 426 453.59 421.79 452.35 417.23C450.48 410.28 449.69 403.21 448.94 396.08C448.65 395.23 449.45 395.52 448.86 394.69C447.77 393.17 441.69 393.85 439.83 393.5C441.75 367.53 478.62 368.25 479.04 393.85C476.72 393.96 474.4 394.08 472.08 394.19C471.74 394.3 471.41 394.4 471.08 394.5C471.18 396.33 471.29 398.17 471.4 400C472.76 405.57 474.13 411.13 475.5 416.7C484.5 412.44 493.5 408.18 502.5 403.93C504 408.12 505.5 412.31 507 416.5C499.15 421.03 489.43 423.14 482.7 429.5C487.04 435.67 492.99 441.25 499.5 445.07C505.17 441.02 510.83 436.98 516.5 432.93C518.5 436.79 520.5 440.64 522.5 444.5C519.43 446.83 516.37 449.17 513.3 451.5C517.46 455.37 525.92 456.27 531.44 457.24C549.84 460.44 568.63 456.06 585 447.5C593.19 443.21 600.78 434.81 610.5 434.94C618.72 435.05 624.14 441.75 630.67 445.84C640.28 451.86 651.66 456.07 663.08 456.1C663.22 456.28 663.36 456.46 663.5 456.64C666.83 456.6 670.17 456.55 673.5 456.51C673.61 456.37 673.73 456.23 673.84 456.1C683.49 455.87 694.35 452.21 702.17 446.5C699.75 444.17 697.33 441.83 694.92 439.5C697.78 435.98 700.64 432.45 703.5 428.93C706.83 431.9 710.17 434.86 713.5 437.83C718.21 433.87 724.53 427.54 725.9 421.5C720.7 418.83 715.5 416.17 710.3 413.5C712.03 409.28 713.77 405.05 715.5 400.83C721.17 403.61 726.83 406.39 732.5 409.17C735.63 402.66 737.1 395.04 737.1 387.84C737.23 387.73 737.37 387.61 737.51 387.5C737.39 384.99 737.27 382.49 737.15 379.98C736.85 377.1 736.55 374.22 736.25 371.33C735.67 365.67 734.24 360.06 733.2 354.46C730.89 342.11 728.6 329.77 726.22 317.44C723.46 303.11 721.87 288.15 715.74 274.75C701.87 244.43 675.98 220.82 645.22 208.32C632.28 203.06 618.37 199.73 604.5 198.2C597.19 197.39 589.76 197.54 582.5 196.61C582.39 192.24 582.28 187.87 582.17 183.5C568.94 180.83 547.93 183.4 534.43 185.73C495.14 192.51 444.46 212.3 419.89 245.5C427.4 250.67 435.45 254.69 440.7 262.5C434.97 266.92 429.23 271.35 423.5 275.77C403.93 255.31 365.98 253.21 355.58 284.13C353.99 288.85 353.11 293.86 353.17 298.83ZM413 325.49C409.5 325.49 406 325.49 402.5 325.49C399.23 312.4 393.68 301.99 378.34 301.85C378.39 294.58 378.45 287.32 378.5 280.06C401.41 278.75 426.36 301.28 423.5 325.17C420 325.27 416.5 325.38 413 325.49ZM485.57 294.36C497.46 293.17 509.33 301.23 512.75 312.66C514.38 318.13 514 323.86 514 329.5C514 334.53 514.22 339.55 512.88 344.45C510.17 354.32 500.76 362.35 490.5 363.11C477.75 364.05 465.13 356.28 462.3 343.31C461.24 338.47 461.5 333.43 461.5 328.5C461.5 323.86 461.31 319.14 462.21 314.56C464.41 303.52 474.68 295.44 485.57 294.36ZM679.75 297.35C691.96 294.47 704.39 300.87 708.83 312.63C710.83 317.94 710.17 323.93 710.17 329.5C710.17 333.44 710.51 337.56 709.81 341.45C708.07 351.26 699.27 359.44 689.46 360.79C677.68 362.41 665.37 355.06 662.3 343.29C660.98 338.21 661.5 332.69 661.5 327.5C661.5 313.9 664.44 300.96 679.75 297.35ZM485.65 309.24C474.86 311.46 478.37 328.32 489.19 326.59C500.69 324.75 497.23 306.85 485.65 309.24ZM683.66 309.27C673.05 311.55 676.45 328.28 687.19 326.59C698.91 324.74 695.41 306.75 683.66 309.27ZM651.9 394.26C651.99 394.81 652.09 395.37 652.18 395.92C652.19 398 652.2 400.08 652.2 402.16C649.28 409.4 642.39 411.26 635.75 414.26C629.03 417.29 622.38 421.06 615.32 423.23C612.75 423.25 610.19 423.26 607.62 423.27C601.26 421.38 595.26 418.03 589.25 415.26C578.35 410.25 568.24 408.67 571.02 394.05C574.71 389.58 579.01 385.74 583.33 381.84C593.87 372.31 601.63 364.38 617.38 367.28C629.4 369.49 644.13 385.21 651.9 394.26ZM608.81 379.42C602.82 380.28 593.67 386 599.6 392.88C604.76 398.85 617.44 398.89 622.82 393.26C631.42 384.25 615.82 378.42 608.81 379.42ZM581.12 639.97C588.68 636.13 595.32 631.54 603.66 629.26C624.9 623.43 647.13 629.19 662.01 645.49C665.98 649.83 668.14 655.01 671.02 660C674.07 661.96 679.66 661 683.5 661C691.83 661 700.17 661 708.5 661C712.24 661 716.86 661.66 720.17 660.27C726.29 654.87 731.14 648.25 737.6 643.06C749.58 633.43 763.01 628.68 778.13 626.82C782.92 627.25 787.71 627.68 792.5 628.12C806.5 578.54 820.5 528.97 834.5 479.39C764.71 479.3 694.92 479.2 625.13 479.11C615.92 479.12 606.71 479.13 597.5 479.14C592.57 492.4 589.47 506.61 585.66 520.24C578.68 545.19 571.45 570.07 564.43 595C561.79 604.36 559.06 613.69 556.48 623.07C555.12 628 553.85 632.92 548.91 635.42C542.89 638.46 526.76 636.84 519.5 636.84C502.83 636.84 486.17 636.84 469.5 636.84C460.72 636.84 450.94 635.69 442.39 637.5C442.43 645.01 442.46 652.53 442.5 660.04C448.88 662.32 467.7 660.83 475.5 660.83C494.83 660.83 514.17 660.83 533.5 660.83C538.7 660.83 555.39 661.86 559.3 660.7C561.66 660 563.58 656.42 565.15 654.65C570.02 649.17 576 645.06 581.12 639.97ZM722.5 532.9C724.61 541.48 720.46 546.32 713.13 549.6C710.98 550.56 708.95 551.62 706.5 551.47C701.82 551.19 699.91 547.55 694.92 549.45C689.43 551.55 690.47 556.03 687.5 559.99C686 562 683.69 562.91 681.48 563.92C674.07 567.32 670.66 566.65 664.39 561.5C662.7 552.92 665.98 548.31 673.44 544.92C675.75 543.87 677.87 542.72 680.5 542.88C685.19 543.17 687.25 547.06 692.31 544.81C697.67 542.43 696.48 538.06 699.57 534.09C700.96 532.31 703.11 531.49 705.09 530.58C712.58 527.14 716.16 527.4 722.5 532.9ZM747.7 547.5C749.71 555.49 745.9 561.18 738.81 564.34C736.83 565.23 734.72 566.4 732.5 566.43C729.51 566.46 727.57 564.33 724.82 563.64C720.24 562.49 715.81 566.59 714.5 570.51C718.26 580.36 724.16 572.58 730.5 572.63C734.11 572.65 738.15 575.6 740.5 578.13C743.15 592.63 724.06 602.23 714.62 590.5C714.62 587.32 714.62 584.14 714.62 580.96C707.98 575.44 706.07 581.28 699.5 581.3C695.71 581.3 691.46 578.27 689.11 575.5C689.07 566.5 691.24 563.18 699.19 559.63C701.29 558.69 703.12 557.76 705.5 557.85C710.89 558.06 711.88 562.27 718 559.49C722.93 557.26 721.99 553.02 724.65 549.19C727.06 545.71 735.42 542.34 739.48 542.95C742.36 543.39 745.39 545.84 747.7 547.5ZM682.32 578.5C682.32 581.5 682.32 584.5 682.32 587.5C687.05 593.07 690.87 588.2 696.5 587.6C700.69 587.16 705.41 590.32 707.89 593.5C707.83 597.27 707.22 603 704.28 605.8C698.61 611.17 684.48 613.63 681.68 604.5C681.68 601.57 681.68 598.65 681.68 595.72C675.04 590.79 673.91 595.53 667.5 596.1C663.43 596.46 659.25 593.65 656.5 590.87C653.72 576.19 673.49 566.16 682.32 578.5ZM731.38 682.39C712.08 682.43 692.79 682.46 673.49 682.5C670.05 689.78 668.81 698.58 666.75 706.38C662.39 722.86 657.88 739.29 653.3 755.71C650.06 767.3 646.84 779.11 640.61 789.5C651.4 791.37 663.51 790 674.5 790C696.17 790 717.83 790 739.5 790C751.69 790 767.19 792.35 777.13 783.6C785.66 776.11 788.07 764.01 791.2 753.61C795.58 739.07 799.42 724.35 803.26 709.66C805.63 700.58 808.94 691.36 810.31 682.07C818.81 662.47 794.16 647.88 777.5 649.06C756.88 650.54 743.1 667.35 731.38 682.39ZM258.99 707.06C245.12 711.05 231.44 719.93 219.9 728.43C215.79 731.46 210.81 734.68 207.94 738.9C203.31 741.26 199.91 746.1 196.44 749.92C185.96 761.48 177.6 775.05 171.77 789.5C229.25 789.5 286.73 789.5 344.2 789.5C322.83 774.44 305.78 755.13 293.51 732C290.1 725.57 287.01 718.87 284.48 712.04C283.02 708.09 282.06 703.14 279.5 699.93C272.66 702.3 265.83 704.68 258.99 707.06Z" fill="#000000" fill-rule="evenodd" stroke="#000000" stroke-width="0.25" stroke-linejoin="round"/>
<path d="M353.17 298.83C359.4 309.92 364.55 314.79 377.5 318.11C377.78 312.69 378.06 307.27 378.34 301.85C393.68 301.99 399.23 312.4 402.5 325.49C406 325.49 409.5 325.49 413 325.49C412.38 333.16 412.14 340.86 410.81 348.46C408.16 363.6 402.62 378.41 398.66 393.25C395.45 405.25 390.17 418.01 389.83 430.5C389.23 452.87 405.44 471.65 427.5 475C434.65 448.69 441.79 422.39 448.94 396.08C449.69 403.21 450.48 410.28 452.35 417.23C453.59 421.79 455.81 426 457.14 430.5C450.74 437.17 444.35 443.83 437.96 450.5C441.47 453.33 444.99 456.17 448.5 459C453.83 453.59 459.17 448.18 464.5 442.77C471.29 449.35 478.09 455.92 484.88 462.5C481.19 467.77 476.19 474.16 475.06 480.5C478.87 482.36 482.69 484.21 486.5 486.07C490.17 480.48 493.83 474.89 497.5 469.3C502.33 471.29 507.17 473.27 512 475.25C508.63 487.83 505.27 500.4 501.9 512.97C496.41 512.31 491.09 510.88 485.5 510.55C467.63 509.52 449.41 510.51 431.5 510.51C421.29 510.51 407.65 512.84 398.62 506.93C391.18 502.06 390.61 494.3 388.5 486.51C381.5 486.61 374.5 486.72 367.5 486.83C366.46 498.68 371.75 511.91 380.21 520.26C382.84 522.86 386.07 524.69 388.84 527.02C384.64 530.26 380.02 532.92 376.16 536.66C365.66 546.8 358.19 561.84 358 576.5C362.96 577.49 368.39 577 373.5 577C382.83 577 392.17 577 401.5 577C430.5 577 459.5 577 488.5 577C506.17 577 523.24 579.03 528.08 558C536.98 566.72 541.04 586.57 539.82 598.5C539.26 603.94 537.61 609.29 536.03 614.5C527.99 616.09 518.76 615 510.5 615C494.83 615 479.17 615 463.5 615C454.53 615 443.44 613.2 434.96 616.48C419.42 622.5 420.17 636.51 420.17 650.5C420.17 657.73 419.65 664.65 423.38 671.14C425.98 675.67 429.96 677.92 433.93 680.9C415.08 688.09 399.02 714.68 400.39 734.5C465.32 734.5 530.25 734.5 595.18 734.5C599.92 722.43 602.35 708.91 605.75 696.37C607.32 690.6 608.2 683.96 611.34 678.8C617.56 668.57 631.52 665.44 641.54 671.98C645.55 674.6 647.36 678.3 650.23 681.9C648.61 690.93 645.61 699.83 643.3 708.71C639.48 723.41 635.57 738.1 631.25 752.66C628 763.63 625.45 777 615.96 784.48C607.69 790.99 596.35 790 586.5 790C566.83 790 547.17 790 527.5 790C499.83 790 472.17 790 444.5 790C425.07 790 405.63 791.13 386.77 785.65C355.43 776.53 330.51 752.65 314.67 724.79C294.71 689.67 289.77 647.13 294.23 607.5C296.62 586.31 302.45 565.86 307.65 545.25C319.66 497.68 333.52 450.51 348.29 403.71C355.17 381.89 363.71 360.44 370.12 338.5C359.98 326.99 352.6 314.8 353.17 298.83ZM810.31 682.07C808.94 691.36 805.63 700.58 803.26 709.66C799.42 724.35 795.58 739.07 791.2 753.61C788.07 764.01 785.66 776.11 777.13 783.6C767.19 792.35 751.69 790 739.5 790C717.83 790 696.17 790 674.5 790C663.51 790 651.4 791.37 640.61 789.5C646.84 779.11 650.06 767.3 653.3 755.71C657.88 739.29 662.39 722.86 666.75 706.38C668.81 698.58 670.05 689.78 673.49 682.5C692.79 682.46 712.08 682.43 731.38 682.39C722.8 698.9 710.01 715.51 706.82 734.5C723.12 734.5 739.42 734.5 755.71 734.5C759.44 722.27 762.47 709.78 765.81 697.44C767.66 690.58 768.65 682.43 773.1 676.66C784 662.52 802.85 667.85 810.31 682.07ZM207.94 738.9C207.41 745.62 204.2 752.18 209.01 758.47C213.5 764.34 220.94 763.17 227.5 763.17C238.5 763.17 249.5 763.17 260.5 763.17C266.54 763.17 273.34 763.99 279.11 762.5C265.39 742.68 260.66 731.36 258.99 707.06C265.83 704.68 272.66 702.3 279.5 699.93C282.06 703.14 283.02 708.09 284.48 712.04C287.01 718.87 290.1 725.57 293.51 732C305.78 755.13 322.83 774.44 344.2 789.5C286.73 789.5 229.25 789.5 171.77 789.5C177.6 775.05 185.96 761.48 196.44 749.92C199.91 746.1 203.31 741.26 207.94 738.9Z" fill="#ef9543" fill-rule="evenodd" stroke="#ef9543" stroke-width="0.25" stroke-linejoin="round"/>
<path d="M737.15 379.98C737.27 382.49 737.39 384.99 737.51 387.5C737.37 387.61 737.23 387.73 737.1 387.84C737.11 385.22 737.13 382.6 737.15 379.98ZM472.08 394.19C472.16 395.96 472.24 397.73 472.32 399.5C472.01 399.67 471.71 399.83 471.4 400C471.29 398.17 471.18 396.33 471.08 394.5C471.41 394.4 471.74 394.3 472.08 394.19ZM652.18 395.92C652.53 396.11 652.88 396.31 653.23 396.5C653.23 398.17 653.23 399.83 653.23 401.5C652.89 401.72 652.55 401.94 652.2 402.16C652.2 400.08 652.19 398 652.18 395.92ZM607.62 423.27C610.19 423.26 612.75 423.25 615.32 423.23C615.05 423.59 614.77 423.94 614.5 424.29C612.5 424.3 610.5 424.31 608.5 424.32C608.21 423.97 607.91 423.62 607.62 423.27ZM663.08 456.1C666.66 456.1 670.25 456.1 673.84 456.1C673.73 456.23 673.61 456.37 673.5 456.51C670.17 456.55 666.83 456.6 663.5 456.64C663.36 456.46 663.22 456.28 663.08 456.1ZM512 475.25C520.61 477.56 529.09 479.43 538 480.17C538.17 480.44 538.33 480.72 538.5 481C541.83 481 545.17 481 548.5 481C548.72 480.73 548.95 480.46 549.17 480.19C557.86 479.46 566.09 477.88 574.5 475.61C574.96 482.87 569.42 496.17 567.35 503.76C564.43 514.45 561.29 525.08 558.33 535.75C556.58 542.07 555.32 549.09 552.5 555C544.47 540.98 534.01 528.74 519.79 520.68C514.04 517.42 507.85 515.67 501.9 512.97C505.27 500.4 508.63 487.83 512 475.25ZM621.88 493.09C623.56 496.42 629.97 495 633.5 495C645.17 495 656.83 495 668.5 495C700.5 495 732.5 495 764.5 495C774.83 495 785.17 495 795.5 495C801.56 495 807.79 494.58 813.76 495.5C801.88 539.27 790.01 583.05 778.13 626.82C763.01 628.68 749.58 633.43 737.6 643.06C731.14 648.25 726.29 654.87 720.17 660.27C703.78 660.18 687.4 660.09 671.02 660C668.14 655.01 665.98 649.83 662.01 645.49C647.13 629.19 624.9 623.43 603.66 629.26C595.32 631.54 588.68 636.13 581.12 639.97C594.71 591.01 608.29 542.05 621.88 493.09ZM722.5 532.9C716.16 527.4 712.58 527.14 705.09 530.58C703.11 531.49 700.96 532.31 699.57 534.09C696.48 538.06 697.67 542.43 692.31 544.81C687.25 547.06 685.19 543.17 680.5 542.88C677.87 542.72 675.75 543.87 673.44 544.92C665.98 548.31 662.7 552.92 664.39 561.5C670.66 566.65 674.07 567.32 681.48 563.92C683.69 562.91 686 562 687.5 559.99C690.47 556.03 689.43 551.55 694.92 549.45C699.91 547.55 701.82 551.19 706.5 551.47C708.95 551.62 710.98 550.56 713.13 549.6C720.46 546.32 724.61 541.48 722.5 532.9ZM747.7 547.5C745.39 545.84 742.36 543.39 739.48 542.95C735.42 542.34 727.06 545.71 724.65 549.19C721.99 553.02 722.93 557.26 718 559.49C711.88 562.27 710.89 558.06 705.5 557.85C703.12 557.76 701.29 558.69 699.19 559.63C691.24 563.18 689.07 566.5 689.11 575.5C691.46 578.27 695.71 581.3 699.5 581.3C706.07 581.28 707.98 575.44 714.62 580.96C714.62 584.14 714.62 587.32 714.62 590.5C724.06 602.23 743.15 592.63 740.5 578.13C738.15 575.6 734.11 572.65 730.5 572.63C724.16 572.58 718.26 580.36 714.5 570.51C715.81 566.59 720.24 562.49 724.82 563.64C727.57 564.33 729.51 566.46 732.5 566.43C734.72 566.4 736.83 565.23 738.81 564.34C745.9 561.18 749.71 555.49 747.7 547.5ZM682.32 578.5C673.49 566.16 653.72 576.19 656.5 590.87C659.25 593.65 663.43 596.46 667.5 596.1C673.91 595.53 675.04 590.79 681.68 595.72C681.68 598.65 681.68 601.57 681.68 604.5C684.48 613.63 698.61 611.17 704.28 605.8C707.22 603 707.83 597.27 707.89 593.5C705.41 590.32 700.69 587.16 696.5 587.6C690.87 588.2 687.05 593.07 682.32 587.5C682.32 584.5 682.32 581.5 682.32 578.5Z" fill="#dddddd" fill-rule="evenodd" stroke="#dddddd" stroke-width="0.25" stroke-linejoin="round"/>
<path d="M485.65 309.24C497.23 306.85 500.69 324.75 489.19 326.59C478.37 328.32 474.86 311.46 485.65 309.24ZM683.66 309.27C695.41 306.75 698.91 324.74 687.19 326.59C676.45 328.28 673.05 311.55 683.66 309.27ZM736.25 371.33C736.55 374.22 736.85 377.1 737.15 379.98C737.13 382.6 737.11 385.22 737.1 387.84C737.1 395.04 735.63 402.66 732.5 409.17C726.83 406.39 721.17 403.61 715.5 400.83C713.77 405.05 712.03 409.28 710.3 413.5C715.5 416.17 720.7 418.83 725.9 421.5C724.53 427.54 718.21 433.87 713.5 437.83C710.17 434.86 706.83 431.9 703.5 428.93C700.64 432.45 697.78 435.98 694.92 439.5C697.33 441.83 699.75 444.17 702.17 446.5C694.35 452.21 683.49 455.87 673.84 456.1C670.25 456.1 666.66 456.1 663.08 456.1C651.66 456.07 640.28 451.86 630.67 445.84C624.14 441.75 618.72 435.05 610.5 434.94C600.78 434.81 593.19 443.21 585 447.5C568.63 456.06 549.84 460.44 531.44 457.24C525.92 456.27 517.46 455.37 513.3 451.5C516.37 449.17 519.43 446.83 522.5 444.5C520.5 440.64 518.5 436.79 516.5 432.93C510.83 436.98 505.17 441.02 499.5 445.07C492.99 441.25 487.04 435.67 482.7 429.5C489.43 423.14 499.15 421.03 507 416.5C505.5 412.31 504 408.12 502.5 403.93C493.5 408.18 484.5 412.44 475.5 416.7C474.13 411.13 472.76 405.57 471.4 400C471.71 399.83 472.01 399.67 472.32 399.5C472.24 397.73 472.16 395.96 472.08 394.19C474.4 394.08 476.72 393.96 479.04 393.85C509.7 393.92 540.36 393.98 571.02 394.05C568.24 408.67 578.35 410.25 589.25 415.26C595.26 418.03 601.26 421.38 607.62 423.27C607.91 423.62 608.21 423.97 608.5 424.32C610.5 424.31 612.5 424.3 614.5 424.29C614.77 423.94 615.05 423.59 615.32 423.23C622.38 421.06 629.03 417.29 635.75 414.26C642.39 411.26 649.28 409.4 652.2 402.16C652.55 401.94 652.89 401.72 653.23 401.5C653.23 399.83 653.23 398.17 653.23 396.5C652.88 396.31 652.53 396.11 652.18 395.92C652.09 395.37 651.99 394.81 651.9 394.26C657.59 393.33 663.7 393.83 669.5 393.83C680.5 393.83 691.5 393.83 702.5 393.83C711.17 393.83 720.91 394.53 727.94 388.45C733.41 383.72 734.13 377.8 736.25 371.33ZM608.81 379.42C615.82 378.42 631.42 384.25 622.82 393.26C617.44 398.89 604.76 398.85 599.6 392.88C593.67 386 602.82 380.28 608.81 379.42ZM625.13 479.11C694.92 479.2 764.71 479.3 834.5 479.39C820.5 528.97 806.5 578.54 792.5 628.12C787.71 627.68 782.92 627.25 778.13 626.82C790.01 583.05 801.88 539.27 813.76 495.5C807.79 494.58 801.56 495 795.5 495C785.17 495 774.83 495 764.5 495C732.5 495 700.5 495 668.5 495C656.83 495 645.17 495 633.5 495C629.97 495 623.56 496.42 621.88 493.09C622.96 488.43 624.05 483.77 625.13 479.11Z" fill="#ffffff" fill-rule="evenodd" stroke="#ffffff" stroke-width="0.25" stroke-linejoin="round"/>
<path d="M625.13 479.11C624.05 483.77 622.96 488.43 621.88 493.09C608.29 542.05 594.71 591.01 581.12 639.97C576 645.06 570.02 649.17 565.15 654.65C563.58 656.42 561.66 660 559.3 660.7C555.39 661.86 538.7 660.83 533.5 660.83C514.17 660.83 494.83 660.83 475.5 660.83C467.7 660.83 448.88 662.32 442.5 660.04C442.46 652.53 442.43 645.01 442.39 637.5C450.94 635.69 460.72 636.84 469.5 636.84C486.17 636.84 502.83 636.84 519.5 636.84C526.76 636.84 542.89 638.46 548.91 635.42C553.85 632.92 555.12 628 556.48 623.07C559.06 613.69 561.79 604.36 564.43 595C571.45 570.07 578.68 545.19 585.66 520.24C589.47 506.61 592.57 492.4 597.5 479.14C606.71 479.13 615.92 479.12 625.13 479.11ZM538 480.17C541.72 480.17 545.45 480.18 549.17 480.19C548.95 480.46 548.72 480.73 548.5 481C545.17 481 541.83 481 538.5 481C538.33 480.72 538.17 480.44 538 480.17ZM671.02 660C687.4 660.09 703.78 660.18 720.17 660.27C716.86 661.66 712.24 661 708.5 661C700.17 661 691.83 661 683.5 661C679.66 661 674.07 661.96 671.02 660Z" fill="#a6a6a6" fill-rule="evenodd" stroke="#a6a6a6" stroke-width="0.25" stroke-linejoin="round"/>
</g>
</svg>